<svg id="Capa_1" enable-background="new 0 0 512 512" height="512" viewBox="0 0 512 512" width="512" xmlns="http://www.w3.org/2000/svg"><g><g><path d="m233.619 340.602h-16.62l-34.824 124.309h86.268z" fill="#d1ccd3"/><path d="m295 340.602h-64.643l34.824 124.309h64.644z" fill="#c1bcc4"/><g><path d="m0 46.666v301.566c0 14.024 11.368 25.392 25.392 25.392h399.647c14.024 0 25.392-11.368 25.392-25.392v-320.76l-3.606-6.197h-421.433c-14.024-.001-25.392 11.368-25.392 25.391z" fill="#dbe8f9"/></g><path d="m486.608 21.274h-39.782v326.958c0 14.024-11.368 25.392-25.392 25.392h65.174c14.024 0 25.392-11.368 25.392-25.392v-301.566c0-14.023-11.368-25.392-25.392-25.392z" fill="#c9e0fd"/><path d="m450.432 348.232v-30.142h-450.432v30.142c0 14.024 11.368 25.392 25.392 25.392h399.647c14.024.001 25.393-11.368 25.393-25.392z" fill="#f7f4f7"/><path d="m446.826 348.232c0 14.024-11.368 25.392-25.392 25.392h65.174c14.024 0 25.392-11.368 25.392-25.392v-30.142h-65.174z" fill="#edeaed"/><path d="m300.408 449.774h-150.728c-11.309 0-20.476 9.167-20.476 20.476 0 11.308 9.167 20.476 20.476 20.476h167.941l3.262-3.643v-16.833c.001-11.309-9.166-20.476-20.475-20.476z" fill="#f7f4f7"/><path d="m362.32 449.774h-65.174c11.308 0 20.476 9.167 20.476 20.476v20.476h44.698c11.309 0 20.476-9.167 20.476-20.476s-9.168-20.476-20.476-20.476z" fill="#edeaed"/></g><g><g><g><g><path d="m169.443 71.253c-55.081 0-99.732 44.652-99.732 99.732s44.652 99.732 99.732 99.732c25.027 0 47.899-9.22 65.409-24.446l-65.409-75.286z" fill="#e2969b"/><g><path d="m268.9 178.323-99.457-7.338 65.409 75.286c19.3-16.783 32.078-40.866 34.048-67.948z" fill="#f4e066"/></g><path d="m269.175 170.985c0-55.081-44.652-99.732-99.732-99.732v99.732l99.457 7.338c.176-2.424.275-4.87.275-7.338z" fill="#9bc4f9"/></g></g><g><g><g fill="#e07f84"><path d="m169.443 95.494v-24.241c-11.412 0-22.374 1.922-32.587 5.451 12.082 4.176 23.114 10.604 32.587 18.79z"/><path d="m198.32 204.223c-10.092 28.557-32.817 51.142-61.464 61.042 10.213 3.529 21.175 5.451 32.587 5.451 25.027 0 47.899-9.22 65.409-24.446z"/></g><path d="m203.969 173.532c-.269 10.739-2.242 21.053-5.649 30.691l36.532 42.048c19.301-16.783 32.078-40.866 34.048-67.948z" fill="#efd133"/><path d="m169.443 71.253v24.241c21.164 18.288 34.558 45.325 34.558 75.491 0 .852-.011 1.701-.032 2.547l64.931 4.791c.176-2.424.275-4.869.275-7.338 0-55.081-44.652-99.732-99.732-99.732z" fill="#7fb2f9"/></g></g><g><g><path d="m442.29 108.063h-126.562c-4.268 0-7.726-3.459-7.726-7.726s3.459-7.726 7.726-7.726h126.562c4.268 0 7.726 3.459 7.726 7.726s-3.459 7.726-7.726 7.726z" fill="#665e66"/></g><g><path d="m442.29 155.161h-126.562c-4.268 0-7.726-3.459-7.726-7.726s3.459-7.726 7.726-7.726h126.562c4.268 0 7.726 3.459 7.726 7.726s-3.459 7.726-7.726 7.726z" fill="#665e66"/></g><g><path d="m442.29 202.261h-126.562c-4.268 0-7.726-3.459-7.726-7.726s3.459-7.726 7.726-7.726h126.562c4.268 0 7.726 3.459 7.726 7.726s-3.459 7.726-7.726 7.726z" fill="#665e66"/></g><g><path d="m379.009 249.359h-63.281c-4.268 0-7.726-3.459-7.726-7.726s3.459-7.726 7.726-7.726h63.281c4.268 0 7.726 3.459 7.726 7.726s-3.458 7.726-7.726 7.726z" fill="#665e66"/></g></g></g></g></g></svg>